# xmcd
#
# Track frame offsets: 
#        183
#        8973
#        15123
#        35360
#        44798
#        52323
#        70623
#        77433
#        88023
#        97685
#        107115
#        117335
#        130023
#        141860
#        148998
#        156935
#        163998
#        179283
#        188673
#        216815
#        221885
#        226120
#        247248
#        263898
#        275663
#        285873
#        293818
#
# Disc length: 4044 seconds
#
# Revision: 22
# Processed by: cddbd v1.5.2PL0 Copyright (c) Steve Scherf et al.
# Submitted via: ExactAudioCopy v0.99pb5
#
DISCID=8d0fca1b
DTITLE=Louis Lortie - Chopin - Complete Works - CD02
DYEAR=1986
DGENRE=Classique
TTITLE0=Étude Op.10 - N°01  in C major - Allegro
TTITLE1=Étude Op.10 - N°02  in A minor - Allegro
TTITLE2=Étude Op.10 - N°03  in E major - Lento ma non troppo
TTITLE3=Étude Op.10 - N°04  in C sharp minor - Presto
TTITLE4=Étude Op.10 - N°05  in G flat major - Vivace
TTITLE5=Étude Op.10 - N°06  in E flat minor - Andante con molto espres
TTITLE5=sione
TTITLE6=Étude Op.10 - N°07  in C major - Vivace
TTITLE7=Étude Op.10 - N°08  in F major, Allegro
TTITLE8=Étude Op.10 - N°09  in F minor - Allegro molto agitato
TTITLE9=Étude Op.10 - N°10  in A flat major - Vivace assai
TTITLE10=Étude Op.10 - N°11  in E flat major - Allegretto
TTITLE11=Étude Op.10 - N°12  in C minor - Allegro con fuoco
TTITLE12=Étude Op.25 - N°01  in A flat major - Allegro sostenuto
TTITLE13=Étude Op.25 - N°02  in F minor - Presto
TTITLE14=Étude Op.25 - N°03  in F major - Allegro
TTITLE15=Étude Op.25 - N°04  in A minor - Agitato
TTITLE16=Étude Op.25 - N°05  in E minor - Vivace
TTITLE17=Étude Op.25 - N°06  in G sharp minor - Allegro
TTITLE18=Étude Op.25 - N°07  in C sharp minor - Lento
TTITLE19=Étude Op.25 - N°08  in D flat major - Vivace assai
TTITLE20=Étude Op.25 - N°09  in G flat major - Allegro assai
TTITLE21=Étude Op.25 - N°10  in B minor - Allegro con fuoco
TTITLE22=Étude Op.25 - N°11  in A minor - Allegro con brio
TTITLE23=Étude Op.25 - N°12  in C minor - Allegro molto con fuoco
TTITLE24=3 nouvelles Études - N°1 in F minor - Andantino
TTITLE25=3 nouvelles Études - N°2 in D flat major - Allegretto
TTITLE26=3 nouvelles Études - N°3 in A flat major - Allegretto
EXTD=YEAR: 1986
EXTT0=
EXTT1=
EXTT2=
EXTT3=
EXTT4=
EXTT5=
EXTT6=
EXTT7=
EXTT8=
EXTT9=
EXTT10=
EXTT11=
EXTT12=
EXTT13=
EXTT14=
EXTT15=
EXTT16=
EXTT17=
EXTT18=
EXTT19=
EXTT20=
EXTT21=
EXTT22=
EXTT23=
EXTT24=
EXTT25=
EXTT26=
PLAYORDER=
